<svg version="1.1" xmlns="http://www.w3.org/2000/svg" xmlns:xlink="http://www.w3.org/1999/xlink" width="65.485px" height="65.485px" viewBox="0,0,256,256"><g fill="none" fill-rule="nonzero" stroke="none" stroke-width="1" stroke-linecap="butt" stroke-linejoin="miter" stroke-miterlimit="10" stroke-dasharray="" stroke-dashoffset="0" font-family="none" font-weight="none" font-size="none" text-anchor="none" style="mix-blend-mode: normal"><g transform="translate(-0.00049,0.00163) scale(3.90929,3.90929)"><g><g id="group-6svg"><path d="M32.515,37.462c-8.916,-8.916 -11.246,-21.901 -7.039,-32.97c-3.973,1.51 -7.705,3.84 -10.905,7.039c-12.115,12.116 -12.115,31.759 0.001,43.874c12.115,12.116 31.758,12.116 43.874,0.001c3.199,-3.2 5.529,-6.932 7.039,-10.905c-11.069,4.206 -24.055,1.877 -32.97,-7.039z" id="path-1_26_" fill="#959efa"></path><path d="M32.509,63.992c-8.688,0 -16.855,-3.383 -22.998,-9.526c-12.681,-12.681 -12.681,-33.315 0,-45.995c3.25,-3.25 7.096,-5.733 11.432,-7.381c0.552,-0.21 1.176,-0.076 1.593,0.341c0.418,0.418 0.552,1.042 0.342,1.594c-4.128,10.864 -1.499,23.18 6.697,31.376c5.564,5.564 12.967,8.629 20.843,8.629c3.618,0 7.163,-0.65 10.534,-1.931c0.553,-0.21 1.176,-0.076 1.593,0.342c0.418,0.417 0.551,1.041 0.342,1.593c-1.649,4.337 -4.132,8.183 -7.381,11.432c-6.142,6.143 -14.31,9.526 -22.997,9.526zM19.029,5.214c-2.737,1.396 -5.216,3.197 -7.397,5.378c-11.511,11.511 -11.511,30.242 0,41.753c5.576,5.577 12.99,8.647 20.877,8.647c7.886,0 15.3,-3.07 20.876,-8.647c2.181,-2.181 3.981,-4.659 5.376,-7.395c-2.713,0.718 -5.508,1.08 -8.343,1.08c-8.678,0 -16.833,-3.377 -22.964,-9.507c-8.22,-8.221 -11.358,-20.2 -8.425,-31.309z" id="path-2_26_" fill="#000000"></path></g></g></g></g></svg>